<svg width='200' height='200' fill="#000000" xmlns="http://www.w3.org/2000/svg" xmlns:xlink="http://www.w3.org/1999/xlink" version="1.1" x="0px" y="0px" viewBox="0 0 100 100" enable-background="new 0 0 100 100" xml:space="preserve"><path fill="#000000" d="M87.675,28.875c1.351-1.938,2.626-4.588,2.626-7.683c0-6.707-4.826-13.924-15.42-13.924  c-10.369,0-15.961,7.563-18.497,14.393c-1.692-1.553-3.924-2.522-6.384-2.522c-2.458,0-4.688,0.969-6.379,2.518  c-2.532-6.83-8.116-14.388-18.484-14.388c-10.594,0-15.42,7.217-15.42,13.924c0,3.093,1.274,5.74,2.623,7.679  c-4.252,0.941-7.448,4.727-7.448,9.26v7.122C4.893,47.874,7.019,50,9.641,50v33.237c0,5.237,4.26,9.496,9.496,9.496h9.496  c0.869,0,1.673-0.25,2.374-0.658c0.701,0.408,1.505,0.658,2.374,0.658h33.237c0.869,0,1.673-0.25,2.374-0.658  c0.701,0.408,1.505,0.658,2.374,0.658h9.496c5.236,0,9.496-4.259,9.496-9.496V50c2.622,0,4.748-2.126,4.748-4.748V38.13  C95.107,33.604,91.919,29.821,87.675,28.875z M74.881,12.015c7.261,0,10.672,4.361,10.672,9.176c0,4.15-3.985,7.442-3.985,7.442  H71.366h-4.748h-7.122C59.496,28.634,61.509,12.015,74.881,12.015z M66.618,45.252H33.382v-11.87h7.122h18.992h7.122V45.252z   M50,23.885c2.611,0,4.72,2.103,4.743,4.706h-9.487C45.28,25.988,47.389,23.885,50,23.885z M25.137,12.015  c13.373,0,15.367,16.618,15.367,16.618h-7.122h-4.748H18.451c0,0-3.985-3.292-3.985-7.442  C14.466,16.376,17.876,12.015,25.137,12.015z M9.641,38.13c0-2.622,2.126-4.748,4.748-4.748h4.062h10.183v11.87H14.389H9.641V38.13z   M19.137,87.985c-2.622,0-4.748-2.126-4.748-4.748V50h14.244v37.985H19.137z M33.382,87.985V50h33.237v37.985H33.382z   M85.611,83.237c0,2.622-2.126,4.748-4.748,4.748h-9.496V50h14.244V83.237z M90.359,45.252h-4.748H71.366v-11.87h10.201h4.043  c2.622,0,4.748,2.126,4.748,4.748V45.252z"/></svg>