<svg width='200' height='200' fill="#000000" xmlns:dc="http://purl.org/dc/elements/1.1/" xmlns:cc="http://creativecommons.org/ns#" xmlns:rdf="http://www.w3.org/1999/02/22-rdf-syntax-ns#" xmlns:svg="http://www.w3.org/2000/svg" xmlns="http://www.w3.org/2000/svg" xmlns:sodipodi="http://sodipodi.sourceforge.net/DTD/sodipodi-0.dtd" xmlns:inkscape="http://www.inkscape.org/namespaces/inkscape" version="1.1" x="0px" y="0px" viewBox="0 0 100 100"><g transform="translate(0,-952.36218)"><path style="text-indent:0;text-transform:none;direction:ltr;block-progression:tb;baseline-shift:baseline;color:#000000;enable-background:accumulate;" d="m 50,955.36218 c -4.0658,0 -7.4731,2.49477 -9.0312,6 l -6.9688,0 c -1.0472,1e-4 -1.9999,0.95283 -2,2 l 0,2 -14,0 c -1.12,0.003 -1.9993,1.04651 -2,2 l 0,80.00002 c 10e-5,1.0472 0.9528,1.9999 2,2 l 64,0 c 1.0472,-10e-5 1.9999,-0.9528 2,-2 l 0,-80.00002 c -1e-4,-1.04717 -0.9528,-1.9999 -2,-2 l -14,0 0,-2 c -1e-4,-1.04717 -0.9528,-1.9999 -2,-2 l -6.9688,0 c -1.5582,-3.50523 -4.9654,-6 -9.0312,-6 z m 0,4 c 2.8324,0 5.1496,1.88045 5.8125,4.46875 0.208,0.86248 1.0503,1.52817 1.9375,1.53125 l 6.25,0 0,6 -28,0 0,-6 6.25,0 c 0.8872,-0.003 1.7295,-0.66877 1.9375,-1.53125 0.6629,-2.5883 2.9801,-4.46875 5.8125,-4.46875 z m -30,10 12,0 0,4 c 1e-4,1.04717 0.9528,1.9999 2,2 l 32,0 c 1.0472,-10e-5 1.9999,-0.95283 2,-2 l 0,-4 12,0 0,76.00002 -60,0 z m 30,12 c -3.3137,0 -6,2.68629 -6,6 0,3.31371 2.6863,6 6,6 3.3137,0 6,-2.68629 6,-6 0,-3.31371 -2.6863,-6 -6,-6 z m 0,14 c -6,0 -13,2 -13,10.00002 l 26,0 c 0,-8.00002 -7,-10.00002 -13,-10.00002 z m -20,17.00002 c -1.1046,0 -2,0.8954 -2,2 0,1.1046 0.8954,2 2,2 l 40,0 c 1.1046,0 2,-0.8954 2,-2 0,-1.1046 -0.8954,-2 -2,-2 z m 0,12 c -1.1046,0 -2,0.8954 -2,2 0,1.1046 0.8954,2 2,2 l 40,0 c 1.1046,0 2,-0.8954 2,-2 0,-1.1046 -0.8954,-2 -2,-2 z m 0,12 c -1.1046,0 -2,0.8954 -2,2 0,1.1046 0.8954,2 2,2 l 40,0 c 1.1046,0 2,-0.8954 2,-2 0,-1.1046 -0.8954,-2 -2,-2 z" fill="#000000" fill-opacity="1" stroke="none" marker="none" visibility="visible" display="inline" overflow="visible"/></g></svg>