<svg width='200' height='200' fill="#000000" xmlns="http://www.w3.org/2000/svg" xmlns:xlink="http://www.w3.org/1999/xlink" version="1.1" x="0px" y="0px" viewBox="0 0 100 100" enable-background="new 0 0 100 100" xml:space="preserve"><path fill="#000000" d="M75.822,91.6H24.178c-4.508,0-8.175-3.667-8.175-8.175V16.576c0-4.508,3.667-8.175,8.175-8.175h21.713  c0.884,0,1.6,0.716,1.6,1.6s-0.716,1.6-1.6,1.6H24.178c-2.743,0-4.975,2.232-4.975,4.975v66.849c0,2.743,2.232,4.976,4.975,4.976  h51.645c2.743,0,4.976-2.232,4.976-4.976V16.576c0-2.743-2.232-4.975-4.976-4.975H54.109c-0.884,0-1.6-0.716-1.6-1.6  s0.716-1.6,1.6-1.6h21.713c4.508,0,8.175,3.667,8.175,8.175v66.849C83.997,87.933,80.33,91.6,75.822,91.6z"/><path fill="#000000" d="M74.178,30.893H53.631c-0.884,0-1.6-0.716-1.6-1.6s0.716-1.6,1.6-1.6h20.547c0.884,0,1.6,0.716,1.6,1.6  S75.062,30.893,74.178,30.893z"/><path fill="#000000" d="M74.178,38.11H53.631c-0.884,0-1.6-0.716-1.6-1.6s0.716-1.6,1.6-1.6h20.547c0.884,0,1.6,0.716,1.6,1.6  S75.062,38.11,74.178,38.11z"/><path fill="#000000" d="M74.178,45.284H53.631c-0.884,0-1.6-0.716-1.6-1.6s0.716-1.6,1.6-1.6h20.547c0.884,0,1.6,0.716,1.6,1.6  S75.062,45.284,74.178,45.284z"/><path fill="#000000" d="M74.178,55.859H25.822c-0.884,0-1.6-0.716-1.6-1.6s0.716-1.6,1.6-1.6h48.355c0.884,0,1.6,0.716,1.6,1.6  S75.062,55.859,74.178,55.859z"/><path fill="#000000" d="M74.178,63.077H25.822c-0.884,0-1.6-0.716-1.6-1.6s0.716-1.6,1.6-1.6h48.355c0.884,0,1.6,0.716,1.6,1.6  S75.062,63.077,74.178,63.077z"/><path fill="#000000" d="M74.178,70.249H25.822c-0.884,0-1.6-0.716-1.6-1.6s0.716-1.6,1.6-1.6h48.355c0.884,0,1.6,0.716,1.6,1.6  S75.062,70.249,74.178,70.249z"/><path fill="#000000" d="M63.904,77.464H25.822c-0.884,0-1.6-0.716-1.6-1.6s0.716-1.6,1.6-1.6h38.082c0.884,0,1.6,0.716,1.6,1.6  S64.788,77.464,63.904,77.464z"/><path fill="#000000" d="M41.499,34.105c1.205-1.25,1.951-2.944,1.951-4.813c0-3.828-3.115-6.942-6.943-6.942  s-6.943,3.114-6.943,6.942c0,1.869,0.746,3.563,1.951,4.813c-4.291,1.918-7.292,6.219-7.292,11.215c0,0.884,0.716,1.6,1.6,1.6  s1.6-0.716,1.6-1.6c0-5.01,4.075-9.085,9.084-9.085s9.084,4.076,9.084,9.085c0,0.884,0.716,1.6,1.6,1.6s1.6-0.716,1.6-1.6  C48.792,40.324,45.79,36.023,41.499,34.105z M32.764,29.292c0-2.063,1.679-3.742,3.743-3.742s3.743,1.679,3.743,3.742  s-1.679,3.742-3.743,3.742S32.764,31.356,32.764,29.292z"/></svg>