<svg width='200' height='200' fill="#000000" xmlns="http://www.w3.org/2000/svg" data-name="Layer 1" viewBox="0 0 100 100" x="0px" y="0px"><title>setng cog</title><path d="M58.54,100l-1.86-4.52a7.39,7.39,0,0,0-4-4,7.7,7.7,0,0,0-2.81-.55,7.32,7.32,0,0,0-6.8,4.55L41.21,100,36.5,98.72a51,51,0,0,1-11.42-4.79l-4.24-2.43L22.7,87a7.39,7.39,0,0,0,0-5.62,7.33,7.33,0,0,0-9.59-4L8.6,79.25,6.17,75a50.29,50.29,0,0,1-4.9-11.84L0,58.48l4.53-1.84a7.39,7.39,0,0,0,4-4,7.27,7.27,0,0,0,0-5.61,7.32,7.32,0,0,0-4-4L0,41.23,1.28,36.5A50,50,0,0,1,6.15,25l2.27-4.28L13,22.61a7.35,7.35,0,0,0,2.77.55,7.23,7.23,0,0,0,2.72-.52A7.36,7.36,0,0,0,22.6,13.1L20.75,8.6,25,6.17A50,50,0,0,1,36.49,1.29l0.07,0L41.45,0,43.3,4.53a7.39,7.39,0,0,0,4,4,7.7,7.7,0,0,0,2.81.55,7.32,7.32,0,0,0,6.8-4.55L58.76,0l4.72,1.28A50,50,0,0,1,75,6.17l4.16,2.29L77.27,13a7.39,7.39,0,0,0,0,5.62,7.33,7.33,0,0,0,9.59,4l4.52-1.86L93.8,25a50,50,0,0,1,4.89,11.52v0l1.3,4.87-4.53,1.84A7.33,7.33,0,0,0,90.9,50v0a7.32,7.32,0,0,0,4.55,6.91L100,58.77,98.69,63.5a50.25,50.25,0,0,1-4.8,11.43l-2.43,4.23L87,77.29a7.29,7.29,0,0,0-5.61,0h0a7.32,7.32,0,0,0-4,9.59l1.86,4.52L75,93.83a49.8,49.8,0,0,1-11.76,4.89Zm-20.8-5.72,0.76,0.21,0.31-.76a11.92,11.92,0,0,1,11.06-7.41,12.29,12.29,0,0,1,4.52.88h0a12,12,0,0,1,6.52,6.52l0.31,0.76L62,94.27a45.19,45.19,0,0,0,10.67-4.44l0.72-.41-0.32-.77A11.94,11.94,0,0,1,79.56,73a11.9,11.9,0,0,1,9.17,0l0.75,0.31,0.41-.72a45.63,45.63,0,0,0,4.35-10.37l0.2-.75-0.75-.3a12.05,12.05,0,0,1,0-22.27l0.75-.31-0.24-.91a45.39,45.39,0,0,0-4.44-10.45l-0.42-.73-0.77.32A11.94,11.94,0,0,1,73,20.39a12,12,0,0,1,0-9.14l0.3-.73-0.62-.34A45.39,45.39,0,0,0,62.23,5.73l-0.76-.2-0.31.76a11.92,11.92,0,0,1-11.06,7.41,12.29,12.29,0,0,1-4.52-.88h0A12,12,0,0,1,39,6.28L38.7,5.49l-1,.25a45.38,45.38,0,0,0-10.43,4.43l-0.73.42,0.33,0.79a12,12,0,0,1-6.68,15.55,11.81,11.81,0,0,1-4.44.85,12,12,0,0,1-4.52-.89l-0.71-.29-0.37.7A45.38,45.38,0,0,0,5.72,37.74l-0.2.74,0.75,0.3a12,12,0,0,1,6.53,15.6,12,12,0,0,1-6.52,6.51l-0.76.31L5.72,62a45.66,45.66,0,0,0,4.44,10.75l0.41,0.72,0.77-.32A11.94,11.94,0,0,1,27,79.6a12,12,0,0,1,0,9.14l-0.32.76,0.72,0.41A46.42,46.42,0,0,0,37.73,94.27ZM50,70.44A20.44,20.44,0,1,1,70.45,50,20.47,20.47,0,0,1,50,70.44Zm0-36.27A15.83,15.83,0,1,0,65.83,50,15.85,15.85,0,0,0,50,34.17Z"/></svg>