<svg fill="#000000" xmlns="http://www.w3.org/2000/svg" xmlns:xlink="http://www.w3.org/1999/xlink" version="1.1" x="0px" y="0px" viewBox="0 0 64 64" style="enable-background:new 0 0 64 64;" xml:space="preserve"><g><path d="M51.872,36.75C52.621,34.546,53,32.275,53,30c0-11.58-9.42-21-21-21s-21,9.42-21,21c0,5.062,1.843,9.96,5.19,13.793   l1.507-1.315C14.668,39.01,13,34.578,13,30c0-10.477,8.523-19,19-19s19,8.523,19,19c0,2.056-0.344,4.111-1.022,6.107L51.872,36.75z   "/><path d="M63.723,38H62c-15.131,0-22.821,2.051-30.258,4.034C24.43,43.984,16.869,46,2,46H0.277l4.589,8.031L0.382,63H2   c15.131,0,22.821-2.051,30.258-4.034C39.57,57.016,47.131,55,62,55h1.618l-4.484-8.969L63.723,38z M60.386,53.008   c-14.073,0.141-21.476,2.115-28.644,4.026c-7.041,1.878-14.314,3.817-28.12,3.958l3.512-7.023l-3.416-5.978   c14.006-0.149,21.39-2.118,28.54-4.025c7.023-1.873,14.276-3.807,28.014-3.957l-3.405,5.959L60.386,53.008z"/><path d="M8.56,43.394C6.231,39.327,5,34.696,5,30C5,15.112,17.112,3,32,3s27,12.112,27,27c0,1.938-0.213,3.892-0.633,5.809   l1.954,0.428C60.771,34.18,61,32.081,61,30C61,14.009,47.991,1,32,1S3,14.009,3,30c0,5.044,1.323,10.019,3.825,14.388L8.56,43.394z   "/><rect x="22" y="22" width="20" height="2"/><rect x="22" y="26" width="20" height="2"/><rect x="22" y="30" width="20" height="2"/><path d="M31.743,52.034c-5.688,1.513-11.57,3.077-20.809,3.687l0.132,1.996c9.434-0.623,15.411-2.213,21.191-3.75   c5.688-1.513,11.569-3.077,20.809-3.687l-0.132-1.996C43.501,48.907,37.524,50.497,31.743,52.034z"/></g></svg>