<svg width='200' height='200' fill="#000000" xmlns:dc="http://purl.org/dc/elements/1.1/" xmlns:cc="http://creativecommons.org/ns#" xmlns:rdf="http://www.w3.org/1999/02/22-rdf-syntax-ns#" xmlns:svg="http://www.w3.org/2000/svg" xmlns="http://www.w3.org/2000/svg" xmlns:sodipodi="http://sodipodi.sourceforge.net/DTD/sodipodi-0.dtd" xmlns:inkscape="http://www.inkscape.org/namespaces/inkscape" version="1.1" viewBox="0 0 32 32" x="0px" y="0px"><g transform="translate(0,-1020.3622)"><path style="color:#000000;font-style:normal;font-variant:normal;font-weight:normal;font-stretch:normal;font-size:medium;line-height:normal;font-family:sans-serif;text-indent:0;text-align:start;text-decoration:none;text-decoration-line:none;text-decoration-style:solid;text-decoration-color:#000000;letter-spacing:normal;word-spacing:normal;text-transform:none;direction:ltr;block-progression:tb;writing-mode:lr-tb;baseline-shift:baseline;text-anchor:start;white-space:normal;clip-rule:nonzero;display:inline;overflow:visible;visibility:visible;opacity:1;isolation:auto;mix-blend-mode:normal;color-interpolation:sRGB;color-interpolation-filters:linearRGB;solid-color:#000000;solid-opacity:1;fill:#000000;fill-opacity:1;fill-rule:nonzero;stroke:none;stroke-width:1;stroke-linecap:round;stroke-linejoin:round;stroke-miterlimit:4;stroke-dasharray:none;stroke-dashoffset:0;stroke-opacity:1;color-rendering:auto;image-rendering:auto;shape-rendering:auto;text-rendering:auto;enable-background:accumulate" d="m 6.500025,1020.3621 a 0.50005,0.50005 0 0 0 -0.5,0.5 c 0,0.8062 0.012,1.6511 0.0312,2.5 l -5.53125,0 a 0.50004997,0.50004997 0 0 0 -0.5,0.5 c 1e-5,4.5472 3.2077,8.3387 7.48242,9.2656 0.64344,1.7426 1.56563,3.2834 2.91797,4.3985 0.99232,0.8181 2.21499,1.3892 3.67188,1.6582 l 0,3.4179 c -0.63266,0.337 -1.07222,0.9971 -1.07222,1.7598 l 0,0.051 c -1.52763,0.2211 -2.72806,1.4216 -2.94922,2.9492 l -0.05078,0 c -1.09936,0 -2,0.9007 -2,2 l 0,2.5 a 0.50005,0.50005 0 0 0 0.5,0.5 l 15,0 a 0.50005,0.50005 0 0 0 0.5,-0.5 l 0,-2.5 c 0,-1.0993 -0.90064,-2 -2,-2 l -0.0508,0 c -0.22114,-1.5276 -1.42157,-2.7281 -2.9492,-2.9492 l 0,-0.051 c 0,-0.7627 -0.43956,-1.4228 -1.07227,-1.7598 l 0,-3.4179 c 1.45689,-0.269 2.67956,-0.8401 3.67188,-1.6582 1.35234,-1.1151 2.27453,-2.6559 2.91797,-4.3985 4.27472,-0.9269 7.48241,-4.7184 7.48242,-9.2656 a 0.50004997,0.50004997 0 0 0 -0.5,-0.5 l -5.53125,0 c 0.0193,-0.8489 0.0312,-1.6938 0.0312,-2.5 a 0.50005,0.50005 0 0 0 -0.5,-0.5 l -19,0 z m 0.51758,1 17.96484,0 c -0.0124,3.7481 -0.16925,7.9662 -1.32812,11.2402 -0.60446,1.7077 -1.46948,3.1449 -2.69141,4.1524 -1.22193,1.0075 -2.80781,1.6074 -4.96289,1.6074 -2.15508,0 -3.74096,-0.5999 -4.96289,-1.6074 -1.22193,-1.0075 -2.08695,-2.4447 -2.69141,-4.1524 -1.15887,-3.274 -1.31568,-7.4921 -1.32812,-11.2402 z m -5.92774,3 4.96875,0 c 0.0125,0.3329 0.0245,0.6652 0.043,1 l -3.30859,0 a 0.50005,0.50005 0 0 0 -0.47852,0.6445 c 0.66547,2.2348 2.3491,4.0128 4.50586,4.8418 0.0898,0.3929 0.18828,0.7792 0.29883,1.1582 -3.36232,-0.9861 -5.80834,-4.0075 -6.0293,-7.6445 z m 24.85157,0 4.96875,0 c -0.22096,3.637 -2.66698,6.6585 -6.0293,7.6445 0.11055,-0.379 0.20907,-0.7653 0.29883,-1.1582 2.15675,-0.8289 3.84039,-2.6069 4.50586,-4.8418 a 0.50005,0.50005 0 0 0 -0.47852,-0.6445 l -3.30859,0 c 0.0185,-0.3348 0.0305,-0.6671 0.043,-1 z m -22.29297,2 2.52344,0 c 0.0844,1.1064 0.2123,2.2059 0.40039,3.2773 -1.3204,-0.7022 -2.32169,-1.8836 -2.92383,-3.2773 z m 22.17968,0 2.52344,0 c -0.60214,1.3937 -1.60343,2.5751 -2.92383,3.2773 0.18809,-1.0714 0.31602,-2.1709 0.40039,-3.2773 z m -3.11523,1.8906 a 0.50005,0.50005 0 0 0 -0.45508,0.4414 c -0.0633,0.4778 -0.14002,0.9473 -0.23437,1.4024 a 0.50005,0.50005 0 1 0 0.97851,0.2031 c 0.10003,-0.4825 0.18199,-0.9762 0.24805,-1.4746 a 0.50005,0.50005 0 0 0 -0.48633,-0.5723 0.50005,0.50005 0 0 0 -0.0508,0 z m -0.66992,3.2071 a 0.50005,0.50005 0 0 0 -0.0488,0 0.50005,0.50005 0 0 0 -0.43555,0.3398 c -0.50181,1.4353 -1.24457,2.5981 -2.33789,3.334 a 0.50027492,0.50027492 0 0 0 0.5586,0.8301 c 1.3238,-0.8909 2.17465,-2.2666 2.72265,-3.834 a 0.50005,0.50005 0 0 0 -0.45898,-0.6719 z m -6.9707,7.8613 c 0.30106,0.025 0.6085,0.041 0.92773,0.041 0.31923,0 0.62667,-0.016 0.92773,-0.041 l 0,3.041 -1.85546,0 0,-3.041 z m -0.07227,4.041 2,0 c 0.56266,0 1,0.4374 1,1 l -4,0 c 0,-0.5626 0.43734,-1 1,-1 z m -1.5,2 5,0 c 1.19697,0 2.04073,0.8867 2.29492,2 l -9.58984,0 c 0.25419,-1.1133 1.09795,-2 2.29492,-2 z m -3.5,3 12,0 c 0.56266,0 1,0.4374 1,1 l 0,2 -14,0 0,-2 c 0,-0.5626 0.43734,-1 1,-1 z m 0.45703,1 a 0.50064474,0.50064474 0 0 0 0.0508,1 l 11,0 a 0.50005,0.50005 0 1 0 0,-1 l -11,0 a 0.50005,0.50005 0 0 0 -0.0508,0 z"/></g><style type="text/css">
	.st0{fill:#000000;}
</style></svg>