<svg fill="#000000" xmlns="http://www.w3.org/2000/svg" xmlns:xlink="http://www.w3.org/1999/xlink" viewBox="0 0 60 34" version="1.1" x="0px" y="0px"><title>31 -Badge- (Outline)</title><desc>Created with Sketch.</desc><g stroke="none" stroke-width="1" fill="none" fill-rule="evenodd"><g transform="translate(-118.000000, -722.000000)" fill="#000000"><g transform="translate(118.000000, 722.000000)"><path d="M30,2 C21.729,2 15,8.729 15,17 C15,25.271 21.729,32 30,32 C38.271,32 45,25.271 45,17 C45,8.729 38.271,2 30,2 M30,34 C20.626,34 13,26.374 13,17 C13,7.626 20.626,0 30,0 C39.374,0 47,7.626 47,17 C47,26.374 39.374,34 30,34"/><path d="M20,18 C19.448,18 19,17.552 19,17 C19,10.935 23.935,6 30,6 C30.552,6 31,6.448 31,7 C31,7.552 30.552,8 30,8 C25.038,8 21,12.038 21,17 C21,17.552 20.552,18 20,18"/><path d="M2.8687,25 L10.9997,25 L10.9997,24 L8.9997,24 C8.4477,24 7.9997,23.552 7.9997,23 L7.9997,15 L2.8687,15 L5.8317,19.445 C6.0567,19.781 6.0567,20.219 5.8317,20.555 L2.8687,25 Z M11.9997,27 L0.9997,27 C0.6317,27 0.2927,26.797 0.1187,26.472 C-0.0553,26.146 -0.0363,25.752 0.1677,25.445 L3.7987,20 L0.1677,14.555 C-0.0363,14.248 -0.0553,13.854 0.1187,13.528 C0.2927,13.203 0.6317,13 0.9997,13 L8.9997,13 C9.5527,13 9.9997,13.448 9.9997,14 L9.9997,22 L11.9997,22 C12.5527,22 12.9997,22.448 12.9997,23 L12.9997,26 C12.9997,26.552 12.5527,27 11.9997,27 L11.9997,27 Z"/><path d="M49,25 L57.131,25 L54.168,20.555 C53.944,20.219 53.944,19.781 54.168,19.445 L57.131,15 L52,15 L52,23 C52,23.552 51.552,24 51,24 L49,24 L49,25 Z M59,27 L48,27 C47.448,27 47,26.552 47,26 L47,23 C47,22.448 47.448,22 48,22 L50,22 L50,14 C50,13.448 50.448,13 51,13 L59,13 C59.369,13 59.708,13.203 59.882,13.528 C60.056,13.854 60.037,14.248 59.832,14.555 L56.202,20 L59.832,25.445 C60.037,25.752 60.056,26.146 59.882,26.472 C59.708,26.797 59.369,27 59,27 L59,27 Z"/><path d="M10,22 L13.756,22 C13.254,20.378 13,18.702 13,17 C13,15.298 13.254,13.622 13.756,12 L10,12 L10,22 Z M15.174,24 L9,24 C8.448,24 8,23.552 8,23 L8,11 C8,10.448 8.448,10 9,10 L15.174,10 C15.506,10 15.817,10.166 16.003,10.441 C16.189,10.717 16.226,11.067 16.101,11.375 C15.37,13.179 15,15.071 15,17 C15,18.929 15.37,20.821 16.101,22.625 C16.226,22.933 16.189,23.283 16.003,23.559 C15.817,23.834 15.506,24 15.174,24 L15.174,24 Z"/><path d="M46.2437,22 L49.9997,22 L49.9997,12 L46.2437,12 C46.7457,13.622 46.9997,15.298 46.9997,17 C46.9997,18.702 46.7457,20.378 46.2437,22 M50.9997,24 L44.8267,24 C44.4937,24 44.1827,23.834 43.9967,23.559 C43.8107,23.283 43.7747,22.933 43.8997,22.625 C44.6297,20.821 44.9997,18.929 44.9997,17 C44.9997,15.071 44.6297,13.179 43.8997,11.375 C43.7747,11.067 43.8107,10.717 43.9967,10.441 C44.1827,10.166 44.4937,10 44.8267,10 L50.9997,10 C51.5527,10 51.9997,10.448 51.9997,11 L51.9997,23 C51.9997,23.552 51.5527,24 50.9997,24"/></g></g></g></svg>